<mxfile host="app.diagrams.net" agent="Mozilla/5.0 (Windows NT 10.0; Win64; x64) AppleWebKit/537.36 (KHTML, like Gecko) Chrome/129.0.0.0 Safari/537.36 Edg/129.0.0.0" version="24.8.6">
  <diagram id="C5RBs43oDa-KdzZeNtuy" name="Page-1">
    <mxGraphModel dx="1572" dy="1022" grid="0" gridSize="10" guides="1" tooltips="1" connect="1" arrows="1" fold="1" page="1" pageScale="1" pageWidth="827" pageHeight="1169" math="0" shadow="0">
      <root>
        <mxCell id="WIyWlLk6GJQsqaUBKTNV-0" />
        <mxCell id="WIyWlLk6GJQsqaUBKTNV-1" parent="WIyWlLk6GJQsqaUBKTNV-0" />
        <mxCell id="RzqzO9-HQequwZ4lyPk2-33" value="" style="group" vertex="1" connectable="0" parent="WIyWlLk6GJQsqaUBKTNV-1">
          <mxGeometry x="133" y="1518" width="537" height="449" as="geometry" />
        </mxCell>
        <mxCell id="RzqzO9-HQequwZ4lyPk2-32" value="" style="rounded=0;whiteSpace=wrap;html=1;" vertex="1" parent="RzqzO9-HQequwZ4lyPk2-33">
          <mxGeometry width="537" height="449" as="geometry" />
        </mxCell>
        <mxCell id="RzqzO9-HQequwZ4lyPk2-4" value="Apply Model" style="rounded=0;whiteSpace=wrap;html=1;" vertex="1" parent="RzqzO9-HQequwZ4lyPk2-33">
          <mxGeometry x="54" y="205" width="120" height="60" as="geometry" />
        </mxCell>
        <mxCell id="RzqzO9-HQequwZ4lyPk2-19" style="edgeStyle=orthogonalEdgeStyle;rounded=0;orthogonalLoop=1;jettySize=auto;html=1;exitX=0.5;exitY=1;exitDx=0;exitDy=0;entryX=0.5;entryY=0;entryDx=0;entryDy=0;" edge="1" parent="RzqzO9-HQequwZ4lyPk2-33" source="RzqzO9-HQequwZ4lyPk2-8" target="RzqzO9-HQequwZ4lyPk2-9">
          <mxGeometry relative="1" as="geometry" />
        </mxCell>
        <mxCell id="RzqzO9-HQequwZ4lyPk2-8" value="New Image" style="ellipse;whiteSpace=wrap;html=1;aspect=fixed;" vertex="1" parent="RzqzO9-HQequwZ4lyPk2-33">
          <mxGeometry x="268" y="10" width="80" height="80" as="geometry" />
        </mxCell>
        <mxCell id="RzqzO9-HQequwZ4lyPk2-18" style="edgeStyle=orthogonalEdgeStyle;rounded=0;orthogonalLoop=1;jettySize=auto;html=1;exitX=0.5;exitY=1;exitDx=0;exitDy=0;entryX=0.5;entryY=0;entryDx=0;entryDy=0;" edge="1" parent="RzqzO9-HQequwZ4lyPk2-33" source="RzqzO9-HQequwZ4lyPk2-9" target="RzqzO9-HQequwZ4lyPk2-10">
          <mxGeometry relative="1" as="geometry" />
        </mxCell>
        <mxCell id="RzqzO9-HQequwZ4lyPk2-9" value="Prediction" style="rounded=0;whiteSpace=wrap;html=1;" vertex="1" parent="RzqzO9-HQequwZ4lyPk2-33">
          <mxGeometry x="262" y="109" width="92" height="35" as="geometry" />
        </mxCell>
        <mxCell id="RzqzO9-HQequwZ4lyPk2-14" value="No" style="edgeStyle=orthogonalEdgeStyle;rounded=0;orthogonalLoop=1;jettySize=auto;html=1;exitX=1;exitY=0.5;exitDx=0;exitDy=0;entryX=0;entryY=0.5;entryDx=0;entryDy=0;" edge="1" parent="RzqzO9-HQequwZ4lyPk2-33" source="RzqzO9-HQequwZ4lyPk2-10" target="RzqzO9-HQequwZ4lyPk2-12">
          <mxGeometry relative="1" as="geometry" />
        </mxCell>
        <mxCell id="RzqzO9-HQequwZ4lyPk2-111" value="Yes" style="edgeStyle=orthogonalEdgeStyle;rounded=0;orthogonalLoop=1;jettySize=auto;html=1;exitX=0.5;exitY=1;exitDx=0;exitDy=0;entryX=0.5;entryY=0;entryDx=0;entryDy=0;" edge="1" parent="RzqzO9-HQequwZ4lyPk2-33" source="RzqzO9-HQequwZ4lyPk2-10" target="RzqzO9-HQequwZ4lyPk2-109">
          <mxGeometry relative="1" as="geometry" />
        </mxCell>
        <mxCell id="RzqzO9-HQequwZ4lyPk2-10" value="Confidence Score sufficient?" style="rhombus;whiteSpace=wrap;html=1;" vertex="1" parent="RzqzO9-HQequwZ4lyPk2-33">
          <mxGeometry x="245" y="173" width="116" height="60" as="geometry" />
        </mxCell>
        <mxCell id="RzqzO9-HQequwZ4lyPk2-11" value="Action" style="rounded=0;whiteSpace=wrap;html=1;" vertex="1" parent="RzqzO9-HQequwZ4lyPk2-33">
          <mxGeometry x="257" y="364" width="92" height="35" as="geometry" />
        </mxCell>
        <mxCell id="RzqzO9-HQequwZ4lyPk2-16" style="edgeStyle=orthogonalEdgeStyle;rounded=0;orthogonalLoop=1;jettySize=auto;html=1;exitX=0.5;exitY=1;exitDx=0;exitDy=0;entryX=0.5;entryY=0;entryDx=0;entryDy=0;" edge="1" parent="RzqzO9-HQequwZ4lyPk2-33" source="RzqzO9-HQequwZ4lyPk2-12" target="RzqzO9-HQequwZ4lyPk2-13">
          <mxGeometry relative="1" as="geometry" />
        </mxCell>
        <mxCell id="RzqzO9-HQequwZ4lyPk2-12" value="Inform Operator" style="rounded=0;whiteSpace=wrap;html=1;" vertex="1" parent="RzqzO9-HQequwZ4lyPk2-33">
          <mxGeometry x="411" y="185.5" width="92" height="35" as="geometry" />
        </mxCell>
        <mxCell id="RzqzO9-HQequwZ4lyPk2-17" style="edgeStyle=orthogonalEdgeStyle;rounded=0;orthogonalLoop=1;jettySize=auto;html=1;exitX=0;exitY=0.5;exitDx=0;exitDy=0;entryX=1;entryY=0.5;entryDx=0;entryDy=0;" edge="1" parent="RzqzO9-HQequwZ4lyPk2-33" source="RzqzO9-HQequwZ4lyPk2-13" target="RzqzO9-HQequwZ4lyPk2-11">
          <mxGeometry relative="1" as="geometry" />
        </mxCell>
        <mxCell id="RzqzO9-HQequwZ4lyPk2-13" value="Decision" style="rounded=0;whiteSpace=wrap;html=1;" vertex="1" parent="RzqzO9-HQequwZ4lyPk2-33">
          <mxGeometry x="411" y="364" width="92" height="35" as="geometry" />
        </mxCell>
        <mxCell id="RzqzO9-HQequwZ4lyPk2-110" value="Yes" style="edgeStyle=orthogonalEdgeStyle;rounded=0;orthogonalLoop=1;jettySize=auto;html=1;exitX=1;exitY=0.5;exitDx=0;exitDy=0;entryX=0;entryY=1;entryDx=0;entryDy=0;" edge="1" parent="RzqzO9-HQequwZ4lyPk2-33" source="RzqzO9-HQequwZ4lyPk2-109" target="RzqzO9-HQequwZ4lyPk2-12">
          <mxGeometry relative="1" as="geometry" />
        </mxCell>
        <mxCell id="RzqzO9-HQequwZ4lyPk2-112" value="No" style="edgeStyle=orthogonalEdgeStyle;rounded=0;orthogonalLoop=1;jettySize=auto;html=1;exitX=0.5;exitY=1;exitDx=0;exitDy=0;entryX=0.5;entryY=0;entryDx=0;entryDy=0;" edge="1" parent="RzqzO9-HQequwZ4lyPk2-33" source="RzqzO9-HQequwZ4lyPk2-109" target="RzqzO9-HQequwZ4lyPk2-11">
          <mxGeometry relative="1" as="geometry" />
        </mxCell>
        <mxCell id="RzqzO9-HQequwZ4lyPk2-109" value="Out of distribution data?" style="rhombus;whiteSpace=wrap;html=1;" vertex="1" parent="RzqzO9-HQequwZ4lyPk2-33">
          <mxGeometry x="245" y="265" width="116" height="60" as="geometry" />
        </mxCell>
        <mxCell id="RzqzO9-HQequwZ4lyPk2-69" value="" style="group" vertex="1" connectable="0" parent="WIyWlLk6GJQsqaUBKTNV-1">
          <mxGeometry x="134" y="603" width="854" height="412" as="geometry" />
        </mxCell>
        <mxCell id="RzqzO9-HQequwZ4lyPk2-68" value="" style="rounded=0;whiteSpace=wrap;html=1;" vertex="1" parent="RzqzO9-HQequwZ4lyPk2-69">
          <mxGeometry width="854" height="412" as="geometry" />
        </mxCell>
        <mxCell id="V6FdQHSJsidJlQXu2uGN-6" value="Train Model" style="rounded=0;whiteSpace=wrap;html=1;" parent="RzqzO9-HQequwZ4lyPk2-69" vertex="1">
          <mxGeometry x="34" y="165" width="120" height="60" as="geometry" />
        </mxCell>
        <mxCell id="RzqzO9-HQequwZ4lyPk2-20" style="edgeStyle=orthogonalEdgeStyle;rounded=0;orthogonalLoop=1;jettySize=auto;html=1;exitX=0.5;exitY=1;exitDx=0;exitDy=0;entryX=0.5;entryY=0;entryDx=0;entryDy=0;" edge="1" parent="RzqzO9-HQequwZ4lyPk2-69" source="RzqzO9-HQequwZ4lyPk2-21" target="RzqzO9-HQequwZ4lyPk2-23">
          <mxGeometry relative="1" as="geometry" />
        </mxCell>
        <mxCell id="RzqzO9-HQequwZ4lyPk2-21" value="Task defined" style="ellipse;whiteSpace=wrap;html=1;aspect=fixed;" vertex="1" parent="RzqzO9-HQequwZ4lyPk2-69">
          <mxGeometry x="322" y="8" width="80" height="80" as="geometry" />
        </mxCell>
        <mxCell id="RzqzO9-HQequwZ4lyPk2-22" style="edgeStyle=orthogonalEdgeStyle;rounded=0;orthogonalLoop=1;jettySize=auto;html=1;exitX=0.5;exitY=1;exitDx=0;exitDy=0;entryX=0.5;entryY=0;entryDx=0;entryDy=0;" edge="1" parent="RzqzO9-HQequwZ4lyPk2-69" source="RzqzO9-HQequwZ4lyPk2-23" target="RzqzO9-HQequwZ4lyPk2-26">
          <mxGeometry relative="1" as="geometry" />
        </mxCell>
        <mxCell id="RzqzO9-HQequwZ4lyPk2-23" value="Collect Data" style="rounded=0;whiteSpace=wrap;html=1;" vertex="1" parent="RzqzO9-HQequwZ4lyPk2-69">
          <mxGeometry x="316" y="107" width="92" height="35" as="geometry" />
        </mxCell>
        <mxCell id="RzqzO9-HQequwZ4lyPk2-24" value="No" style="edgeStyle=orthogonalEdgeStyle;rounded=0;orthogonalLoop=1;jettySize=auto;html=1;exitX=1;exitY=0.5;exitDx=0;exitDy=0;entryX=1;entryY=0.5;entryDx=0;entryDy=0;" edge="1" parent="RzqzO9-HQequwZ4lyPk2-69" source="RzqzO9-HQequwZ4lyPk2-26" target="RzqzO9-HQequwZ4lyPk2-23">
          <mxGeometry relative="1" as="geometry">
            <mxPoint x="465" y="201" as="targetPoint" />
          </mxGeometry>
        </mxCell>
        <mxCell id="RzqzO9-HQequwZ4lyPk2-25" value="Yes" style="edgeStyle=orthogonalEdgeStyle;rounded=0;orthogonalLoop=1;jettySize=auto;html=1;exitX=0.5;exitY=1;exitDx=0;exitDy=0;entryX=0.5;entryY=0;entryDx=0;entryDy=0;" edge="1" parent="RzqzO9-HQequwZ4lyPk2-69" source="RzqzO9-HQequwZ4lyPk2-26">
          <mxGeometry relative="1" as="geometry">
            <mxPoint x="362" y="275" as="targetPoint" />
          </mxGeometry>
        </mxCell>
        <mxCell id="RzqzO9-HQequwZ4lyPk2-26" value="Statistics of Data comparable to examples?" style="rhombus;whiteSpace=wrap;html=1;" vertex="1" parent="RzqzO9-HQequwZ4lyPk2-69">
          <mxGeometry x="304" y="161" width="116" height="80" as="geometry" />
        </mxCell>
        <mxCell id="RzqzO9-HQequwZ4lyPk2-36" value="No" style="edgeStyle=orthogonalEdgeStyle;rounded=0;orthogonalLoop=1;jettySize=auto;html=1;exitX=1;exitY=0.5;exitDx=0;exitDy=0;entryX=1;entryY=0.5;entryDx=0;entryDy=0;" edge="1" parent="RzqzO9-HQequwZ4lyPk2-69" source="RzqzO9-HQequwZ4lyPk2-34" target="RzqzO9-HQequwZ4lyPk2-23">
          <mxGeometry relative="1" as="geometry">
            <Array as="points">
              <mxPoint x="473" y="315" />
              <mxPoint x="473" y="125" />
            </Array>
          </mxGeometry>
        </mxCell>
        <mxCell id="RzqzO9-HQequwZ4lyPk2-38" style="edgeStyle=orthogonalEdgeStyle;rounded=0;orthogonalLoop=1;jettySize=auto;html=1;exitX=0.5;exitY=1;exitDx=0;exitDy=0;entryX=0.5;entryY=1;entryDx=0;entryDy=0;" edge="1" parent="RzqzO9-HQequwZ4lyPk2-69" source="RzqzO9-HQequwZ4lyPk2-34" target="RzqzO9-HQequwZ4lyPk2-37">
          <mxGeometry relative="1" as="geometry" />
        </mxCell>
        <mxCell id="RzqzO9-HQequwZ4lyPk2-34" value="Sufficient amount of sampled for every cluster?" style="rhombus;whiteSpace=wrap;html=1;" vertex="1" parent="RzqzO9-HQequwZ4lyPk2-69">
          <mxGeometry x="306" y="275" width="116" height="80" as="geometry" />
        </mxCell>
        <mxCell id="RzqzO9-HQequwZ4lyPk2-42" style="edgeStyle=orthogonalEdgeStyle;rounded=0;orthogonalLoop=1;jettySize=auto;html=1;exitX=0.5;exitY=0;exitDx=0;exitDy=0;entryX=0.5;entryY=1;entryDx=0;entryDy=0;" edge="1" parent="RzqzO9-HQequwZ4lyPk2-69" source="RzqzO9-HQequwZ4lyPk2-37" target="RzqzO9-HQequwZ4lyPk2-39">
          <mxGeometry relative="1" as="geometry" />
        </mxCell>
        <mxCell id="RzqzO9-HQequwZ4lyPk2-37" value="Train model" style="rounded=0;whiteSpace=wrap;html=1;" vertex="1" parent="RzqzO9-HQequwZ4lyPk2-69">
          <mxGeometry x="560.5" y="313" width="111" height="33" as="geometry" />
        </mxCell>
        <mxCell id="RzqzO9-HQequwZ4lyPk2-40" value="No" style="edgeStyle=orthogonalEdgeStyle;rounded=0;orthogonalLoop=1;jettySize=auto;html=1;entryX=1;entryY=0.5;entryDx=0;entryDy=0;exitX=0;exitY=0.5;exitDx=0;exitDy=0;" edge="1" parent="RzqzO9-HQequwZ4lyPk2-69" source="RzqzO9-HQequwZ4lyPk2-39" target="RzqzO9-HQequwZ4lyPk2-23">
          <mxGeometry relative="1" as="geometry">
            <Array as="points">
              <mxPoint x="508" y="272" />
              <mxPoint x="508" y="125" />
            </Array>
          </mxGeometry>
        </mxCell>
        <mxCell id="RzqzO9-HQequwZ4lyPk2-57" value="Yes" style="edgeStyle=orthogonalEdgeStyle;rounded=0;orthogonalLoop=1;jettySize=auto;html=1;exitX=0.5;exitY=0;exitDx=0;exitDy=0;entryX=0.5;entryY=1;entryDx=0;entryDy=0;" edge="1" parent="RzqzO9-HQequwZ4lyPk2-69" source="RzqzO9-HQequwZ4lyPk2-39" target="RzqzO9-HQequwZ4lyPk2-43">
          <mxGeometry relative="1" as="geometry" />
        </mxCell>
        <mxCell id="RzqzO9-HQequwZ4lyPk2-39" value="Performance sufficient?" style="rhombus;whiteSpace=wrap;html=1;" vertex="1" parent="RzqzO9-HQequwZ4lyPk2-69">
          <mxGeometry x="557" y="247" width="119" height="50" as="geometry" />
        </mxCell>
        <mxCell id="RzqzO9-HQequwZ4lyPk2-58" style="edgeStyle=orthogonalEdgeStyle;rounded=0;orthogonalLoop=1;jettySize=auto;html=1;exitX=0.5;exitY=0;exitDx=0;exitDy=0;entryX=0.5;entryY=1;entryDx=0;entryDy=0;" edge="1" parent="RzqzO9-HQequwZ4lyPk2-69" source="RzqzO9-HQequwZ4lyPk2-43" target="RzqzO9-HQequwZ4lyPk2-45">
          <mxGeometry relative="1" as="geometry" />
        </mxCell>
        <mxCell id="RzqzO9-HQequwZ4lyPk2-43" value="Evaluate model" style="rounded=0;whiteSpace=wrap;html=1;" vertex="1" parent="RzqzO9-HQequwZ4lyPk2-69">
          <mxGeometry x="556" y="192" width="120" height="26" as="geometry" />
        </mxCell>
        <mxCell id="RzqzO9-HQequwZ4lyPk2-51" value="No" style="edgeStyle=orthogonalEdgeStyle;rounded=0;orthogonalLoop=1;jettySize=auto;html=1;exitX=0.5;exitY=0;exitDx=0;exitDy=0;entryX=0.5;entryY=1;entryDx=0;entryDy=0;" edge="1" parent="RzqzO9-HQequwZ4lyPk2-69" source="RzqzO9-HQequwZ4lyPk2-45" target="RzqzO9-HQequwZ4lyPk2-48">
          <mxGeometry relative="1" as="geometry" />
        </mxCell>
        <mxCell id="RzqzO9-HQequwZ4lyPk2-45" value="Bias in model?" style="rhombus;whiteSpace=wrap;html=1;" vertex="1" parent="RzqzO9-HQequwZ4lyPk2-69">
          <mxGeometry x="556.5" y="115" width="119" height="50" as="geometry" />
        </mxCell>
        <mxCell id="RzqzO9-HQequwZ4lyPk2-49" value="No" style="edgeStyle=orthogonalEdgeStyle;rounded=0;orthogonalLoop=1;jettySize=auto;html=1;entryX=1;entryY=0;entryDx=0;entryDy=0;" edge="1" parent="RzqzO9-HQequwZ4lyPk2-69" source="RzqzO9-HQequwZ4lyPk2-48" target="RzqzO9-HQequwZ4lyPk2-23">
          <mxGeometry relative="1" as="geometry" />
        </mxCell>
        <mxCell id="RzqzO9-HQequwZ4lyPk2-53" value="" style="edgeStyle=orthogonalEdgeStyle;rounded=0;orthogonalLoop=1;jettySize=auto;html=1;" edge="1" parent="RzqzO9-HQequwZ4lyPk2-69" source="RzqzO9-HQequwZ4lyPk2-48" target="RzqzO9-HQequwZ4lyPk2-52">
          <mxGeometry relative="1" as="geometry" />
        </mxCell>
        <mxCell id="RzqzO9-HQequwZ4lyPk2-48" value="Features&amp;nbsp;&lt;div&gt;reasonable&lt;/div&gt;" style="rhombus;whiteSpace=wrap;html=1;" vertex="1" parent="RzqzO9-HQequwZ4lyPk2-69">
          <mxGeometry x="556.5" y="34" width="119" height="47" as="geometry" />
        </mxCell>
        <mxCell id="RzqzO9-HQequwZ4lyPk2-50" value="Yes" style="edgeStyle=orthogonalEdgeStyle;rounded=0;orthogonalLoop=1;jettySize=auto;html=1;entryX=1.083;entryY=0.086;entryDx=0;entryDy=0;entryPerimeter=0;" edge="1" parent="RzqzO9-HQequwZ4lyPk2-69" source="RzqzO9-HQequwZ4lyPk2-45" target="RzqzO9-HQequwZ4lyPk2-23">
          <mxGeometry relative="1" as="geometry">
            <Array as="points">
              <mxPoint x="527" y="113" />
              <mxPoint x="527" y="109" />
            </Array>
          </mxGeometry>
        </mxCell>
        <mxCell id="RzqzO9-HQequwZ4lyPk2-64" style="edgeStyle=orthogonalEdgeStyle;rounded=0;orthogonalLoop=1;jettySize=auto;html=1;exitX=0.5;exitY=1;exitDx=0;exitDy=0;entryX=0.5;entryY=0;entryDx=0;entryDy=0;" edge="1" parent="RzqzO9-HQequwZ4lyPk2-69" source="RzqzO9-HQequwZ4lyPk2-52" target="RzqzO9-HQequwZ4lyPk2-62">
          <mxGeometry relative="1" as="geometry" />
        </mxCell>
        <mxCell id="RzqzO9-HQequwZ4lyPk2-52" value="Human in the loop validation" style="whiteSpace=wrap;html=1;" vertex="1" parent="RzqzO9-HQequwZ4lyPk2-69">
          <mxGeometry x="729" y="36.75" width="92" height="41.5" as="geometry" />
        </mxCell>
        <mxCell id="RzqzO9-HQequwZ4lyPk2-65" value="No" style="edgeStyle=orthogonalEdgeStyle;rounded=0;orthogonalLoop=1;jettySize=auto;html=1;exitX=0;exitY=0.5;exitDx=0;exitDy=0;entryX=1;entryY=0.25;entryDx=0;entryDy=0;" edge="1" parent="RzqzO9-HQequwZ4lyPk2-69" source="RzqzO9-HQequwZ4lyPk2-62" target="RzqzO9-HQequwZ4lyPk2-37">
          <mxGeometry relative="1" as="geometry" />
        </mxCell>
        <mxCell id="RzqzO9-HQequwZ4lyPk2-67" value="Yes" style="edgeStyle=orthogonalEdgeStyle;rounded=0;orthogonalLoop=1;jettySize=auto;html=1;exitX=0.5;exitY=1;exitDx=0;exitDy=0;entryX=0.5;entryY=0;entryDx=0;entryDy=0;" edge="1" parent="RzqzO9-HQequwZ4lyPk2-69" source="RzqzO9-HQequwZ4lyPk2-62" target="RzqzO9-HQequwZ4lyPk2-66">
          <mxGeometry relative="1" as="geometry" />
        </mxCell>
        <mxCell id="RzqzO9-HQequwZ4lyPk2-62" value="Performance sufficient?" style="rhombus;whiteSpace=wrap;html=1;" vertex="1" parent="RzqzO9-HQequwZ4lyPk2-69">
          <mxGeometry x="715.5" y="115" width="119" height="50" as="geometry" />
        </mxCell>
        <mxCell id="RzqzO9-HQequwZ4lyPk2-66" value="Configure model" style="whiteSpace=wrap;html=1;" vertex="1" parent="RzqzO9-HQequwZ4lyPk2-69">
          <mxGeometry x="729" y="206.25" width="92" height="41.5" as="geometry" />
        </mxCell>
        <mxCell id="RzqzO9-HQequwZ4lyPk2-70" value="Image recognition task" style="ellipse;whiteSpace=wrap;html=1;aspect=fixed;" vertex="1" parent="WIyWlLk6GJQsqaUBKTNV-1">
          <mxGeometry x="175" y="18" width="80" height="80" as="geometry" />
        </mxCell>
        <mxCell id="RzqzO9-HQequwZ4lyPk2-115" value="" style="group" vertex="1" connectable="0" parent="WIyWlLk6GJQsqaUBKTNV-1">
          <mxGeometry x="134" y="117" width="858" height="463" as="geometry" />
        </mxCell>
        <mxCell id="RzqzO9-HQequwZ4lyPk2-114" value="" style="rounded=0;whiteSpace=wrap;html=1;" vertex="1" parent="RzqzO9-HQequwZ4lyPk2-115">
          <mxGeometry width="858" height="463" as="geometry" />
        </mxCell>
        <mxCell id="V6FdQHSJsidJlQXu2uGN-0" value="Define Task&amp;nbsp;" style="rounded=0;whiteSpace=wrap;html=1;" parent="RzqzO9-HQequwZ4lyPk2-115" vertex="1">
          <mxGeometry x="24.514285714285716" y="161" width="113.14285714285715" height="60" as="geometry" />
        </mxCell>
        <mxCell id="RzqzO9-HQequwZ4lyPk2-108" style="edgeStyle=orthogonalEdgeStyle;rounded=0;orthogonalLoop=1;jettySize=auto;html=1;exitX=0.5;exitY=1;exitDx=0;exitDy=0;" edge="1" parent="RzqzO9-HQequwZ4lyPk2-115" source="RzqzO9-HQequwZ4lyPk2-71" target="RzqzO9-HQequwZ4lyPk2-73">
          <mxGeometry relative="1" as="geometry" />
        </mxCell>
        <mxCell id="RzqzO9-HQequwZ4lyPk2-71" value="Tool delivered" style="ellipse;whiteSpace=wrap;html=1;aspect=fixed;" vertex="1" parent="RzqzO9-HQequwZ4lyPk2-115">
          <mxGeometry x="226.2857142857143" y="21" width="75.42857142857143" height="75.42857142857143" as="geometry" />
        </mxCell>
        <mxCell id="RzqzO9-HQequwZ4lyPk2-75" value="No" style="edgeStyle=orthogonalEdgeStyle;rounded=0;orthogonalLoop=1;jettySize=auto;html=1;" edge="1" parent="RzqzO9-HQequwZ4lyPk2-115" source="RzqzO9-HQequwZ4lyPk2-73" target="RzqzO9-HQequwZ4lyPk2-74">
          <mxGeometry relative="1" as="geometry" />
        </mxCell>
        <mxCell id="RzqzO9-HQequwZ4lyPk2-77" value="Yes" style="edgeStyle=orthogonalEdgeStyle;rounded=0;orthogonalLoop=1;jettySize=auto;html=1;" edge="1" parent="RzqzO9-HQequwZ4lyPk2-115" source="RzqzO9-HQequwZ4lyPk2-73" target="RzqzO9-HQequwZ4lyPk2-76">
          <mxGeometry relative="1" as="geometry" />
        </mxCell>
        <mxCell id="RzqzO9-HQequwZ4lyPk2-73" value="Image acquistion conditions known?" style="rhombus;whiteSpace=wrap;html=1;" vertex="1" parent="RzqzO9-HQequwZ4lyPk2-115">
          <mxGeometry x="207.42857142857144" y="125" width="112.2" height="47" as="geometry" />
        </mxCell>
        <mxCell id="RzqzO9-HQequwZ4lyPk2-74" value="Identify image acquisition conditions" style="whiteSpace=wrap;html=1;" vertex="1" parent="RzqzO9-HQequwZ4lyPk2-115">
          <mxGeometry x="354.51428571428573" y="126.75" width="113.14285714285715" height="43.5" as="geometry" />
        </mxCell>
        <mxCell id="RzqzO9-HQequwZ4lyPk2-84" value="Yes" style="edgeStyle=orthogonalEdgeStyle;rounded=0;orthogonalLoop=1;jettySize=auto;html=1;" edge="1" parent="RzqzO9-HQequwZ4lyPk2-115" source="RzqzO9-HQequwZ4lyPk2-76" target="RzqzO9-HQequwZ4lyPk2-83">
          <mxGeometry relative="1" as="geometry" />
        </mxCell>
        <mxCell id="RzqzO9-HQequwZ4lyPk2-86" value="No" style="edgeStyle=orthogonalEdgeStyle;rounded=0;orthogonalLoop=1;jettySize=auto;html=1;exitX=1;exitY=0.5;exitDx=0;exitDy=0;entryX=0;entryY=0.25;entryDx=0;entryDy=0;" edge="1" parent="RzqzO9-HQequwZ4lyPk2-115" source="RzqzO9-HQequwZ4lyPk2-76" target="RzqzO9-HQequwZ4lyPk2-85">
          <mxGeometry relative="1" as="geometry" />
        </mxCell>
        <mxCell id="RzqzO9-HQequwZ4lyPk2-76" value="Borderline cases known?" style="rhombus;whiteSpace=wrap;html=1;" vertex="1" parent="RzqzO9-HQequwZ4lyPk2-115">
          <mxGeometry x="207.9" y="201" width="112.2" height="47" as="geometry" />
        </mxCell>
        <mxCell id="RzqzO9-HQequwZ4lyPk2-93" style="edgeStyle=orthogonalEdgeStyle;rounded=0;orthogonalLoop=1;jettySize=auto;html=1;exitX=1;exitY=0.5;exitDx=0;exitDy=0;entryX=0.5;entryY=1;entryDx=0;entryDy=0;" edge="1" parent="RzqzO9-HQequwZ4lyPk2-115" source="RzqzO9-HQequwZ4lyPk2-78" target="RzqzO9-HQequwZ4lyPk2-92">
          <mxGeometry relative="1" as="geometry" />
        </mxCell>
        <mxCell id="RzqzO9-HQequwZ4lyPk2-78" value="Generate Examples" style="whiteSpace=wrap;html=1;" vertex="1" parent="RzqzO9-HQequwZ4lyPk2-115">
          <mxGeometry x="207.42857142857144" y="354" width="113.14285714285715" height="39.5" as="geometry" />
        </mxCell>
        <mxCell id="RzqzO9-HQequwZ4lyPk2-80" style="edgeStyle=orthogonalEdgeStyle;rounded=0;orthogonalLoop=1;jettySize=auto;html=1;exitX=0.5;exitY=1;exitDx=0;exitDy=0;entryX=0.703;entryY=0.098;entryDx=0;entryDy=0;entryPerimeter=0;" edge="1" parent="RzqzO9-HQequwZ4lyPk2-115" source="RzqzO9-HQequwZ4lyPk2-74" target="RzqzO9-HQequwZ4lyPk2-76">
          <mxGeometry relative="1" as="geometry">
            <Array as="points">
              <mxPoint x="411.0857142857143" y="181" />
              <mxPoint x="286.6285714285715" y="181" />
            </Array>
          </mxGeometry>
        </mxCell>
        <mxCell id="RzqzO9-HQequwZ4lyPk2-88" value="No" style="edgeStyle=orthogonalEdgeStyle;rounded=0;orthogonalLoop=1;jettySize=auto;html=1;exitX=0.5;exitY=1;exitDx=0;exitDy=0;entryX=0.5;entryY=0;entryDx=0;entryDy=0;" edge="1" parent="RzqzO9-HQequwZ4lyPk2-115" source="RzqzO9-HQequwZ4lyPk2-83" target="RzqzO9-HQequwZ4lyPk2-78">
          <mxGeometry relative="1" as="geometry" />
        </mxCell>
        <mxCell id="RzqzO9-HQequwZ4lyPk2-90" value="Yes" style="edgeStyle=orthogonalEdgeStyle;rounded=0;orthogonalLoop=1;jettySize=auto;html=1;exitX=1;exitY=0.5;exitDx=0;exitDy=0;" edge="1" parent="RzqzO9-HQequwZ4lyPk2-115" source="RzqzO9-HQequwZ4lyPk2-83">
          <mxGeometry relative="1" as="geometry">
            <mxPoint x="363.62861181273513" y="305.63157894736844" as="targetPoint" />
          </mxGeometry>
        </mxCell>
        <mxCell id="RzqzO9-HQequwZ4lyPk2-83" value="Examples available?" style="rhombus;whiteSpace=wrap;html=1;" vertex="1" parent="RzqzO9-HQequwZ4lyPk2-115">
          <mxGeometry x="207.9" y="282" width="112.2" height="47" as="geometry" />
        </mxCell>
        <mxCell id="RzqzO9-HQequwZ4lyPk2-85" value="Identify boderline case" style="whiteSpace=wrap;html=1;" vertex="1" parent="RzqzO9-HQequwZ4lyPk2-115">
          <mxGeometry x="363.9428571428572" y="214.75" width="113.14285714285715" height="39.5" as="geometry" />
        </mxCell>
        <mxCell id="RzqzO9-HQequwZ4lyPk2-98" style="edgeStyle=orthogonalEdgeStyle;rounded=0;orthogonalLoop=1;jettySize=auto;html=1;exitX=0.5;exitY=0;exitDx=0;exitDy=0;entryX=0.5;entryY=1;entryDx=0;entryDy=0;" edge="1" parent="RzqzO9-HQequwZ4lyPk2-115" source="RzqzO9-HQequwZ4lyPk2-89" target="RzqzO9-HQequwZ4lyPk2-97">
          <mxGeometry relative="1" as="geometry" />
        </mxCell>
        <mxCell id="RzqzO9-HQequwZ4lyPk2-89" value="Apply clustering to images" style="whiteSpace=wrap;html=1;" vertex="1" parent="RzqzO9-HQequwZ4lyPk2-115">
          <mxGeometry x="528.9428571428572" y="295.75" width="113.14285714285715" height="39.5" as="geometry" />
        </mxCell>
        <mxCell id="RzqzO9-HQequwZ4lyPk2-94" style="edgeStyle=orthogonalEdgeStyle;rounded=0;orthogonalLoop=1;jettySize=auto;html=1;exitX=1;exitY=0.5;exitDx=0;exitDy=0;entryX=0;entryY=0.5;entryDx=0;entryDy=0;" edge="1" parent="RzqzO9-HQequwZ4lyPk2-115" source="RzqzO9-HQequwZ4lyPk2-92" target="RzqzO9-HQequwZ4lyPk2-89">
          <mxGeometry relative="1" as="geometry" />
        </mxCell>
        <mxCell id="RzqzO9-HQequwZ4lyPk2-92" value="Examine statistics of images" style="whiteSpace=wrap;html=1;" vertex="1" parent="RzqzO9-HQequwZ4lyPk2-115">
          <mxGeometry x="377.1428571428571" y="295.75" width="113.14285714285715" height="39.5" as="geometry" />
        </mxCell>
        <mxCell id="RzqzO9-HQequwZ4lyPk2-100" value="No" style="edgeStyle=orthogonalEdgeStyle;rounded=0;orthogonalLoop=1;jettySize=auto;html=1;exitX=0.5;exitY=0;exitDx=0;exitDy=0;" edge="1" parent="RzqzO9-HQequwZ4lyPk2-115" source="RzqzO9-HQequwZ4lyPk2-97" target="RzqzO9-HQequwZ4lyPk2-99">
          <mxGeometry relative="1" as="geometry" />
        </mxCell>
        <mxCell id="RzqzO9-HQequwZ4lyPk2-102" value="Yes" style="edgeStyle=orthogonalEdgeStyle;rounded=0;orthogonalLoop=1;jettySize=auto;html=1;exitX=1;exitY=0.5;exitDx=0;exitDy=0;entryX=0;entryY=0.5;entryDx=0;entryDy=0;" edge="1" parent="RzqzO9-HQequwZ4lyPk2-115" source="RzqzO9-HQequwZ4lyPk2-97" target="RzqzO9-HQequwZ4lyPk2-101">
          <mxGeometry relative="1" as="geometry" />
        </mxCell>
        <mxCell id="RzqzO9-HQequwZ4lyPk2-97" value="Outliers present?" style="rhombus;whiteSpace=wrap;html=1;" vertex="1" parent="RzqzO9-HQequwZ4lyPk2-115">
          <mxGeometry x="529.4142857142857" y="211" width="112.2" height="47" as="geometry" />
        </mxCell>
        <mxCell id="RzqzO9-HQequwZ4lyPk2-99" value="Train model" style="whiteSpace=wrap;html=1;" vertex="1" parent="RzqzO9-HQequwZ4lyPk2-115">
          <mxGeometry x="528.4714285714286" y="128.5" width="113.14285714285715" height="43.5" as="geometry" />
        </mxCell>
        <mxCell id="RzqzO9-HQequwZ4lyPk2-101" value="Explain outliers" style="whiteSpace=wrap;html=1;" vertex="1" parent="RzqzO9-HQequwZ4lyPk2-115">
          <mxGeometry x="680.7428571428571" y="295.75" width="113.14285714285715" height="43.5" as="geometry" />
        </mxCell>
        <mxCell id="RzqzO9-HQequwZ4lyPk2-104" value="Yes" style="edgeStyle=orthogonalEdgeStyle;rounded=0;orthogonalLoop=1;jettySize=auto;html=1;exitX=1;exitY=0.5;exitDx=0;exitDy=0;entryX=0.5;entryY=1;entryDx=0;entryDy=0;" edge="1" parent="RzqzO9-HQequwZ4lyPk2-115" source="RzqzO9-HQequwZ4lyPk2-103" target="RzqzO9-HQequwZ4lyPk2-78">
          <mxGeometry relative="1" as="geometry" />
        </mxCell>
        <mxCell id="RzqzO9-HQequwZ4lyPk2-106" style="edgeStyle=orthogonalEdgeStyle;rounded=0;orthogonalLoop=1;jettySize=auto;html=1;exitX=0.5;exitY=0;exitDx=0;exitDy=0;entryX=0.5;entryY=1;entryDx=0;entryDy=0;" edge="1" parent="RzqzO9-HQequwZ4lyPk2-115" source="RzqzO9-HQequwZ4lyPk2-103" target="RzqzO9-HQequwZ4lyPk2-105">
          <mxGeometry relative="1" as="geometry" />
        </mxCell>
        <mxCell id="RzqzO9-HQequwZ4lyPk2-103" value="Outliers reasonable for task?" style="rhombus;whiteSpace=wrap;html=1;" vertex="1" parent="RzqzO9-HQequwZ4lyPk2-115">
          <mxGeometry x="690.1714285714286" y="211" width="112.2" height="47" as="geometry" />
        </mxCell>
        <mxCell id="RzqzO9-HQequwZ4lyPk2-107" style="edgeStyle=orthogonalEdgeStyle;rounded=0;orthogonalLoop=1;jettySize=auto;html=1;exitX=0;exitY=0.5;exitDx=0;exitDy=0;entryX=1;entryY=0.5;entryDx=0;entryDy=0;" edge="1" parent="RzqzO9-HQequwZ4lyPk2-115" source="RzqzO9-HQequwZ4lyPk2-105" target="RzqzO9-HQequwZ4lyPk2-99">
          <mxGeometry relative="1" as="geometry" />
        </mxCell>
        <mxCell id="RzqzO9-HQequwZ4lyPk2-105" value="Document outliers as out of distribution" style="whiteSpace=wrap;html=1;" vertex="1" parent="RzqzO9-HQequwZ4lyPk2-115">
          <mxGeometry x="685.4571428571428" y="128.5" width="113.14285714285715" height="43.5" as="geometry" />
        </mxCell>
        <mxCell id="RzqzO9-HQequwZ4lyPk2-139" value="" style="group" vertex="1" connectable="0" parent="WIyWlLk6GJQsqaUBKTNV-1">
          <mxGeometry x="131" y="1059" width="645" height="430" as="geometry" />
        </mxCell>
        <mxCell id="RzqzO9-HQequwZ4lyPk2-138" value="" style="rounded=0;whiteSpace=wrap;html=1;" vertex="1" parent="RzqzO9-HQequwZ4lyPk2-139">
          <mxGeometry width="645" height="430" as="geometry" />
        </mxCell>
        <mxCell id="RzqzO9-HQequwZ4lyPk2-3" value="Configure Model" style="rounded=0;whiteSpace=wrap;html=1;" vertex="1" parent="RzqzO9-HQequwZ4lyPk2-139">
          <mxGeometry x="24" y="154" width="120" height="60" as="geometry" />
        </mxCell>
        <mxCell id="RzqzO9-HQequwZ4lyPk2-116" style="edgeStyle=orthogonalEdgeStyle;rounded=0;orthogonalLoop=1;jettySize=auto;html=1;exitX=0.5;exitY=1;exitDx=0;exitDy=0;entryX=0.5;entryY=0;entryDx=0;entryDy=0;" edge="1" parent="RzqzO9-HQequwZ4lyPk2-139" source="RzqzO9-HQequwZ4lyPk2-117" target="RzqzO9-HQequwZ4lyPk2-119">
          <mxGeometry relative="1" as="geometry" />
        </mxCell>
        <mxCell id="RzqzO9-HQequwZ4lyPk2-117" value="Model trained" style="ellipse;whiteSpace=wrap;html=1;aspect=fixed;" vertex="1" parent="RzqzO9-HQequwZ4lyPk2-139">
          <mxGeometry x="257" y="18" width="80" height="80" as="geometry" />
        </mxCell>
        <mxCell id="RzqzO9-HQequwZ4lyPk2-118" style="edgeStyle=orthogonalEdgeStyle;rounded=0;orthogonalLoop=1;jettySize=auto;html=1;exitX=0.5;exitY=1;exitDx=0;exitDy=0;entryX=0.5;entryY=0;entryDx=0;entryDy=0;" edge="1" parent="RzqzO9-HQequwZ4lyPk2-139" source="RzqzO9-HQequwZ4lyPk2-119" target="RzqzO9-HQequwZ4lyPk2-122">
          <mxGeometry relative="1" as="geometry" />
        </mxCell>
        <mxCell id="RzqzO9-HQequwZ4lyPk2-119" value="Plan production" style="rounded=0;whiteSpace=wrap;html=1;" vertex="1" parent="RzqzO9-HQequwZ4lyPk2-139">
          <mxGeometry x="251" y="117" width="92" height="35" as="geometry" />
        </mxCell>
        <mxCell id="RzqzO9-HQequwZ4lyPk2-120" value="Yes" style="edgeStyle=orthogonalEdgeStyle;rounded=0;orthogonalLoop=1;jettySize=auto;html=1;exitX=1;exitY=0.5;exitDx=0;exitDy=0;entryX=0;entryY=0.5;entryDx=0;entryDy=0;" edge="1" parent="RzqzO9-HQequwZ4lyPk2-139" source="RzqzO9-HQequwZ4lyPk2-122" target="RzqzO9-HQequwZ4lyPk2-125">
          <mxGeometry relative="1" as="geometry" />
        </mxCell>
        <mxCell id="RzqzO9-HQequwZ4lyPk2-121" value="No" style="edgeStyle=orthogonalEdgeStyle;rounded=0;orthogonalLoop=1;jettySize=auto;html=1;exitX=0.5;exitY=1;exitDx=0;exitDy=0;entryX=0.5;entryY=0;entryDx=0;entryDy=0;" edge="1" parent="RzqzO9-HQequwZ4lyPk2-139" source="RzqzO9-HQequwZ4lyPk2-122">
          <mxGeometry relative="1" as="geometry">
            <mxPoint x="292" y="273" as="targetPoint" />
          </mxGeometry>
        </mxCell>
        <mxCell id="RzqzO9-HQequwZ4lyPk2-122" value="Sensible product?" style="rhombus;whiteSpace=wrap;html=1;" vertex="1" parent="RzqzO9-HQequwZ4lyPk2-139">
          <mxGeometry x="234" y="181" width="116" height="60" as="geometry" />
        </mxCell>
        <mxCell id="RzqzO9-HQequwZ4lyPk2-132" style="edgeStyle=orthogonalEdgeStyle;rounded=0;orthogonalLoop=1;jettySize=auto;html=1;exitX=0.5;exitY=1;exitDx=0;exitDy=0;entryX=1;entryY=0;entryDx=0;entryDy=0;" edge="1" parent="RzqzO9-HQequwZ4lyPk2-139" source="RzqzO9-HQequwZ4lyPk2-125" target="RzqzO9-HQequwZ4lyPk2-131">
          <mxGeometry relative="1" as="geometry" />
        </mxCell>
        <mxCell id="RzqzO9-HQequwZ4lyPk2-125" value="Increase impact factor" style="rounded=0;whiteSpace=wrap;html=1;" vertex="1" parent="RzqzO9-HQequwZ4lyPk2-139">
          <mxGeometry x="400" y="193.5" width="92" height="35" as="geometry" />
        </mxCell>
        <mxCell id="RzqzO9-HQequwZ4lyPk2-129" value="No" style="edgeStyle=orthogonalEdgeStyle;rounded=0;orthogonalLoop=1;jettySize=auto;html=1;exitX=0.5;exitY=1;exitDx=0;exitDy=0;entryX=0.5;entryY=0;entryDx=0;entryDy=0;" edge="1" parent="RzqzO9-HQequwZ4lyPk2-139">
          <mxGeometry relative="1" as="geometry">
            <mxPoint x="292" y="333" as="sourcePoint" />
            <mxPoint x="292" y="372" as="targetPoint" />
          </mxGeometry>
        </mxCell>
        <mxCell id="RzqzO9-HQequwZ4lyPk2-134" value="Yes" style="edgeStyle=orthogonalEdgeStyle;rounded=0;orthogonalLoop=1;jettySize=auto;html=1;exitX=1;exitY=0.5;exitDx=0;exitDy=0;entryX=0;entryY=0.5;entryDx=0;entryDy=0;" edge="1" parent="RzqzO9-HQequwZ4lyPk2-139" source="RzqzO9-HQequwZ4lyPk2-131" target="RzqzO9-HQequwZ4lyPk2-133">
          <mxGeometry relative="1" as="geometry" />
        </mxCell>
        <mxCell id="RzqzO9-HQequwZ4lyPk2-131" value="Demanding or important customer" style="rhombus;whiteSpace=wrap;html=1;" vertex="1" parent="RzqzO9-HQequwZ4lyPk2-139">
          <mxGeometry x="234" y="274" width="116" height="60" as="geometry" />
        </mxCell>
        <mxCell id="RzqzO9-HQequwZ4lyPk2-137" style="edgeStyle=orthogonalEdgeStyle;rounded=0;orthogonalLoop=1;jettySize=auto;html=1;exitX=0.5;exitY=1;exitDx=0;exitDy=0;entryX=1;entryY=0.5;entryDx=0;entryDy=0;" edge="1" parent="RzqzO9-HQequwZ4lyPk2-139" source="RzqzO9-HQequwZ4lyPk2-133" target="RzqzO9-HQequwZ4lyPk2-136">
          <mxGeometry relative="1" as="geometry" />
        </mxCell>
        <mxCell id="RzqzO9-HQequwZ4lyPk2-133" value="Increase impact factor" style="rounded=0;whiteSpace=wrap;html=1;" vertex="1" parent="RzqzO9-HQequwZ4lyPk2-139">
          <mxGeometry x="400" y="286.5" width="92" height="35" as="geometry" />
        </mxCell>
        <mxCell id="RzqzO9-HQequwZ4lyPk2-136" value="Configure HMI" style="rounded=0;whiteSpace=wrap;html=1;" vertex="1" parent="RzqzO9-HQequwZ4lyPk2-139">
          <mxGeometry x="246" y="372" width="92" height="35" as="geometry" />
        </mxCell>
      </root>
    </mxGraphModel>
  </diagram>
</mxfile>
